<svg width="293.90598754882814px" height="120.8px" xmlns="http://www.w3.org/2000/svg" viewBox="103.04700622558593 14.600000000000001 293.90598754882814 120.8" style="background: rgba(0, 0, 0, 0);" preserveAspectRatio="xMidYMid"><defs><linearGradient id="editing-outline-gradient" x1="-0.41354545764260087" x2="1.4135454576426008" y1="0.09326335692419985" y2="0.9067366430758002"><stop offset="0" stop-color="#ee4208"></stop><stop offset="1" stop-color="#4139ff"></stop></linearGradient><filter id="editing-outline" x="-100%" y="-100%" width="300%" height="300%"><feMorphology in="SourceGraphic" operator="dilate" radius="1" result="outline"></feMorphology><feComposite operator="out" in="outline" in2="SourceAlpha"></feComposite></filter></defs><g filter="url(#editing-outline)"><g transform="translate(151.9791774749756, 99)"><path d="M29.18 1.28L29.18 1.28L29.18 1.28Q20.99 1.28 20.22-10.37L20.22-10.37L9.22-10.37L9.22-10.37Q7.94-7.42 7.04-4.86L7.04-4.86L5.38 0L-3.58 0L16.58-42.24L30.34-42.24L33.02-11.14L33.02-11.14Q33.66-4.42 36.22-2.43L36.22-2.43L36.22-2.43Q34.37 1.28 29.18 1.28ZM14.72-23.17L11.20-15.04L20.03-15.04L19.26-31.49L19.26-33.22L14.72-23.17ZM67.01 1.28L67.01 1.28L67.01 1.28Q59.26 1.28 59.26-4.74L59.26-4.74L59.26-4.74Q59.33-6.40 59.84-9.22L59.84-9.22L60.99-15.10L60.99-15.10Q62.72-23.42 62.72-25.28L62.72-25.28L62.72-25.28Q62.72-28.99 60.54-28.99L60.54-28.99L60.54-28.99Q56.90-28.99 54.98-19.46L54.98-19.46L51.20 0L38.34 1.28L44.99-32.70L55.49-33.92L54.46-27.65L54.46-27.65Q57.47-33.92 66.69-33.92L66.69-33.92L66.69-33.92Q71.17-33.92 73.06-32.03L73.06-32.03L73.06-32.03Q74.94-30.14 74.94-25.92L74.94-25.92L74.94-25.92Q74.94-21.95 72.90-12.67L72.90-12.67L72.90-12.67Q71.94-8.51 71.94-6.94L71.94-6.94L71.94-6.94Q71.94-5.38 72.80-4.48L72.80-4.48L72.80-4.48Q73.66-3.58 74.94-3.46L74.94-3.46L74.94-3.46Q74.30-1.28 72.10 0L72.10 0L72.10 0Q69.89 1.28 67.01 1.28ZM95.42-3.52L95.42-3.52L95.42-3.52Q93.44 1.28 87.10 1.28L87.10 1.28L87.10 1.28Q83.84 1.28 81.79-0.96L81.79-0.96L81.79-0.96Q80.06-2.94 80.06-4.93L80.06-4.93L80.06-4.93Q80.06-10.11 82.43-20.22L82.43-20.22L84.80-32.64L97.79-33.92L93.89-13.70L93.89-13.70Q92.80-8.96 92.80-7.30L92.80-7.30L92.80-7.30Q92.80-3.65 95.42-3.52ZM85.95-41.54L85.95-41.54L85.95-41.54Q85.95-44.03 88.03-45.38L88.03-45.38L88.03-45.38Q90.11-46.72 93.12-46.72L93.12-46.72L93.12-46.72Q96.13-46.72 97.95-45.38L97.95-45.38L97.95-45.38Q99.78-44.03 99.78-41.54L99.78-41.54L99.78-41.54Q99.78-39.04 97.76-37.76L97.76-37.76L97.76-37.76Q95.74-36.48 92.74-36.48L92.74-36.48L92.74-36.48Q89.73-36.48 87.84-37.76L87.84-37.76L87.84-37.76Q85.95-39.04 85.95-41.54ZM117.38-30.34L117.38-30.34L117.38-30.34Q120.83-33.92 128.13-33.92L128.13-33.92L128.13-33.92Q132.16-33.92 134.37-31.78L134.37-31.78L134.37-31.78Q136.58-29.63 136.58-25.70L136.58-25.70L136.58-25.70Q136.58-21.76 134.37-18.98L134.37-18.98L134.37-18.98Q132.16-16.19 128.06-15.04L128.06-15.04L128.06-15.04Q128.38-13.76 128.83-12.42L128.83-12.42L129.73-9.86L129.73-9.86Q130.94-6.59 131.90-5.44L131.90-5.44L131.90-5.44Q132.86-4.29 134.14-3.90L134.14-3.90L134.14-3.90Q133.44-1.28 130.88 0.13L130.88 0.13L130.88 0.13Q128.83 1.28 126.02 1.28L126.02 1.28L126.02 1.28Q117.76 1.28 116.67-11.46L116.67-11.46L116.67-11.46Q116.48-13.25 116.48-15.04L116.48-15.04L116.48-15.04Q119.68-15.94 121.92-18.94L121.92-18.94L121.92-18.94Q124.16-21.95 124.16-25.47L124.16-25.47L124.16-25.47Q124.16-28.99 121.66-28.99L121.66-28.99L121.66-28.99Q119.87-28.99 118.46-27.01L118.46-27.01L118.46-27.01Q117.06-25.02 116.42-21.63L116.42-21.63L112.19 0L99.26 1.28L108.22-44.80L121.09-46.08L119.62-38.46L119.62-38.46Q118.66-33.09 117.38-30.34ZM165.44-10.82L165.44-10.82L165.44-10.82Q167.04-9.73 167.04-7.33L167.04-7.33L167.04-7.33Q167.04-4.93 165.82-3.39L165.82-3.39L165.82-3.39Q164.61-1.86 162.62-0.83L162.62-0.83L162.62-0.83Q158.53 1.28 154.11 1.28L154.11 1.28L154.11 1.28Q149.70 1.28 147.10 0.32L147.10 0.32L147.10 0.32Q144.51-0.64 142.78-2.43L142.78-2.43L142.78-2.43Q139.39-5.82 139.39-12.03L139.39-12.03L139.39-12.03Q139.39-21.70 144.64-27.58L144.64-27.58L144.64-27.58Q150.27-33.92 160.06-33.92L160.06-33.92L160.06-33.92Q166.14-33.92 169.15-31.36L169.15-31.36L169.15-31.36Q171.39-29.44 171.39-26.30L171.39-26.30L171.39-26.30Q171.39-15.04 151.94-15.04L151.94-15.04L151.94-15.04Q151.68-13.38 151.68-11.97L151.68-11.97L151.68-11.97Q151.68-9.02 152.99-7.90L152.99-7.90L152.99-7.90Q154.30-6.78 156.74-6.78L156.74-6.78L156.74-6.78Q159.17-6.78 161.76-7.90L161.76-7.90L161.76-7.90Q164.35-9.02 165.44-10.82ZM152.38-17.79L152.38-17.79L152.38-17.79Q156.93-17.79 159.55-20.61L159.55-20.61L159.55-20.61Q162.18-23.30 162.18-27.58L162.18-27.58L162.18-27.58Q162.18-29.06 161.63-29.86L161.63-29.86L161.63-29.86Q161.09-30.66 160-30.66L160-30.66L160-30.66Q158.91-30.66 157.98-30.24L157.98-30.24L157.98-30.24Q157.06-29.82 156.10-28.42L156.10-28.42L156.10-28.42Q153.73-25.22 152.38-17.79ZM174.59-6.40L174.59-6.40L174.59-6.40Q174.59-8.13 175.49-12.48L175.49-12.48L178.88-29.76L175.10-29.76L175.36-31.68L175.36-31.68Q183.04-33.98 190.46-39.62L190.46-39.62L193.54-39.62L192-32.64L196.99-32.64L196.42-29.76L191.49-29.76L188.22-12.48L188.22-12.48Q187.39-8.51 187.39-7.17L187.39-7.17L187.39-7.17Q187.39-4.10 190.08-3.46L190.08-3.46L190.08-3.46Q189.44-1.28 187.14 0L187.14 0L187.14 0Q184.83 1.28 181.57 1.28L181.57 1.28L181.57 1.28Q178.30 1.28 176.45-0.77L176.45-0.77L176.45-0.77Q174.59-2.82 174.59-6.40Z" fill="url(#editing-outline-gradient)"></path></g></g><style>text {
  font-size: 64px;
  font-family: Arial Black;
  dominant-baseline: central;
  text-anchor: middle;
}</style></svg>